<svg width="20" height="20" viewBox="0 0 20 20" fill="none" xmlns="http://www.w3.org/2000/svg">
<path fill-rule="evenodd" clip-rule="evenodd" d="M4 0C1.79086 0 0 1.79086 0 4V16C0 18.2091 1.79086 20 4 20H16C18.2091 20 20 18.2091 20 16V4C20 1.79086 18.2091 0 16 0H4ZM14.3512 5.93603L8.52804 11.5593L5.71934 8.65085C5.33569 8.25357 4.70262 8.24252 4.30534 8.62617C3.90806 9.00982 3.89701 9.64289 4.28066 10.0402L7.75822 13.6413C7.9613 13.8516 8.23427 13.9537 8.50517 13.9462C8.76382 13.9529 9.0249 13.8599 9.22573 13.6659L15.7405 7.37471C16.1378 6.99106 16.1488 6.35799 15.7652 5.96071C15.3815 5.56343 14.7484 5.55238 14.3512 5.93603Z" fill="#41CC9A"/>
</svg>
